<svg width="110" height="110" viewBox="0 0 110 110" fill="none" xmlns="http://www.w3.org/2000/svg">
<path d="M72.8973 56.0607C73.4831 55.4749 73.4831 54.5251 72.8973 53.9393L63.3514 44.3934C62.7656 43.8076 61.8159 43.8076 61.2301 44.3934C60.6443 44.9792 60.6443 45.9289 61.2301 46.5147L69.7154 55L61.2301 63.4853C60.6443 64.0711 60.6443 65.0208 61.2301 65.6066C61.8159 66.1924 62.7656 66.1924 63.3514 65.6066L72.8973 56.0607ZM37.0408 56.5L71.8367 56.5L71.8367 53.5L37.0408 53.5L37.0408 56.5Z" fill="black"/>
<path d="M101.131 81.634L55 108.268L8.86862 81.634L8.86863 28.366L55 1.73207L101.131 28.366L101.131 81.634Z" stroke="black" stroke-width="3"/>
</svg>
