<?xml version="1.0" encoding="UTF-8"?>
<svg width="34px" height="34px" viewBox="0 0 34 34" version="1.1" xmlns="http://www.w3.org/2000/svg" xmlns:xlink="http://www.w3.org/1999/xlink">
    <!-- Generator: Sketch 54.1 (76490) - https://sketchapp.com -->
    <title>In</title>
    <desc>Created with Sketch.</desc>
    <g id="Page-1" stroke="none" stroke-width="1" fill="none" fill-rule="evenodd">
        <g id="Artboard" transform="translate(-157.000000, -113.000000)">
            <g id="In" transform="translate(158.000000, 114.000000)">
                <circle id="Oval" stroke="#FFFFFF" opacity="0.3" cx="16" cy="16" r="16"></circle>
                <g id="linkedin-[#161]" transform="translate(11.000000, 11.000000)"></g>
                <path d="M21.0000102,21 L19.0000102,21 L19.0000102,17.5005 C19.0000102,16.5405 18.5765102,16.005 17.8170102,16.005 C16.9905102,16.005 16.5000102,16.563 16.5000102,17.5005 L16.5000102,21 L14.5000102,21 L14.5000102,14.5 L16.5000102,14.5 L16.5000102,15.231 C16.5000102,15.231 17.1275102,14.13 18.5415102,14.13 C19.9560102,14.13 21.0000102,14.993 21.0000102,16.779 L21.0000102,21 Z M12.2210102,13.4605 C11.8958998,13.4593089 11.5845859,13.3289815 11.3555891,13.098203 C11.1265923,12.8674246 10.9986816,12.5551099 11.0000102,12.23 C10.9988146,11.9049765 11.1267841,11.5927904 11.3557665,11.3621202 C11.5847489,11.13145 11.8959868,11.0011913 12.2210102,11 C12.8976416,11.0027561 13.4440005,11.5533677 13.4415102,12.23 C13.4429719,12.5550637 13.3151727,12.8673798 13.0862553,13.0981728 C12.8573379,13.3289657 12.5460751,13.4593092 12.2210102,13.4605 L12.2210102,13.4605 Z M11.0000102,21 L13.5000102,21 L13.5000102,14.5 L11.0000102,14.5 L11.0000102,21 Z" id="linkedin-[#161]" fill="#FFFFFF" fill-rule="nonzero" opacity="0.7"></path>
            </g>
        </g>
    </g>
</svg>