<svg xmlns="http://www.w3.org/2000/svg" width="34" height="34" viewBox="0 0 34 34">
    <g fill="none" fill-rule="evenodd" transform="translate(1 1)">
        <circle cx="16" cy="16" r="16" stroke="#FFF" opacity=".3"/>
        <path fill="#FFF" d="M19.339 13.407s0-.1 0 0c-.512-.502-1.126-.703-1.74-.603.614-.1.92-.301 1.023-.402 0-.1 0-.201-.102-.201-.307 0-.614.1-.82.201.308-.201.41-.301.41-.402-.307 0-.614.201-1.023.503.102-.201.204-.302.102-.402a.792.792 0 0 0-.41.402c-.307.301-.511.502-.614.804-.41.703-.716 1.306-.92 2.01h-.103a2.402 2.402 0 0 0-.922-.804c-.409-.302-.92-.503-1.535-.804-.614-.302-1.228-.603-1.945-.804 0 .703.307 1.306 1.024 1.708-.205 0-.512 0-.717.1 0 .604.512 1.106 1.433 1.307-.307 0-.614.1-.92.302.306.603.818.804 1.637.804-.103.1-.307.2-.307.2-.103.101-.205.302-.103.503.205.302.41.402.922.402-.717.704-1.638 1.106-2.662 1.005-.614 0-1.33-.301-2.047-.904.717 1.005 1.74 1.809 2.969 2.312 1.433.402 2.866.502 4.196.1a7.313 7.313 0 0 0 3.48-2.312c.41-.603.717-1.206.82-1.809.716 0 1.228-.2 1.535-.603-.205.1-.717.1-1.433-.1.716-.1 1.228-.302 1.33-.704a2.03 2.03 0 0 1-1.535 0 2.746 2.746 0 0 0-1.023-1.809z" opacity=".7"/>
    </g>
</svg>
